<svg xmlns="http://www.w3.org/2000/svg" viewBox="0 0 64 64" role="img" aria-label="NameHim empowering fist icon">
  <defs>
    <linearGradient id="bg" x1="0" y1="0" x2="1" y2="1">
      <stop offset="0%" stop-color="#0b1220" />
      <stop offset="100%" stop-color="#1f2937" />
    </linearGradient>
    <linearGradient id="fist" x1="0" y1="0" x2="0" y2="1">
      <stop offset="0%" stop-color="#fbcfe8" />
      <stop offset="100%" stop-color="#f9a8d4" />
    </linearGradient>
    <linearGradient id="accent" x1="0" y1="0" x2="1" y2="1">
      <stop offset="0%" stop-color="#93c5fd" />
      <stop offset="100%" stop-color="#60a5fa" />
    </linearGradient>
  </defs>

  <rect x="2" y="2" width="60" height="60" rx="14" fill="url(#bg)" stroke="#334155" stroke-width="2" />

  <!-- wrist -->
  <rect x="24" y="40" width="16" height="14" rx="5" fill="url(#fist)" />
  <!-- palm -->
  <rect x="18" y="28" width="28" height="16" rx="7" fill="url(#fist)" />
  <!-- fingers -->
  <rect x="18" y="20" width="6" height="10" rx="3" fill="url(#fist)" />
  <rect x="25" y="18" width="6" height="12" rx="3" fill="url(#fist)" />
  <rect x="32" y="18" width="6" height="12" rx="3" fill="url(#fist)" />
  <rect x="39" y="20" width="6" height="10" rx="3" fill="url(#fist)" />
  <!-- thumb crossing the palm -->
  <path d="M20 37c3-3 7-4 11-3l8 2c2 .5 3 2.8 2.2 4.6-.7 1.8-2.7 2.8-4.6 2.3l-9-2.2c-3.4-.9-6.2-1.7-7.6-3.7z" fill="#f7a8d9" />

  <!-- strength accent -->
  <path d="M12 48c8 5 14 6 20 4" fill="none" stroke="url(#accent)" stroke-width="2.4" stroke-linecap="round" opacity="0.95" />
  <path d="M35 52c8-1 12-5 17-12" fill="none" stroke="url(#accent)" stroke-width="2.4" stroke-linecap="round" opacity="0.95" />
</svg>
